<?xml version="1.0" encoding="utf-8"?>
<!-- Generator: Adobe Illustrator 22.0.1, SVG Export Plug-In . SVG Version: 6.00 Build 0)  -->
<svg version="1.1" id="Layer_1" xmlns="http://www.w3.org/2000/svg" xmlns:xlink="http://www.w3.org/1999/xlink" x="0px" y="0px"
	 viewBox="0 0 64 64" style="enable-background:new 0 0 64 64;" xml:space="preserve">
<style type="text/css">
	.st0{fill:none;stroke:#1C75BC;stroke-width:0.75;stroke-miterlimit:2.6131;}
	.st1{fill:#1B75BC;}
</style>
<g>
	<path class="st0" d="M8.2,9.5h47.6c2.1,0,3.8,1.7,3.8,3.8v42.9c0,2.1-1.7,3.8-3.8,3.8H8.2c-2.1,0-3.8-1.7-3.8-3.8V13.3
		C4.5,11.2,6.2,9.5,8.2,9.5z"/>
	<polygon class="st0" points="4.5,24.2 59.5,24.2 43.9,16.1 20.1,16.1 	"/>
	<path class="st0" d="M17.2,17.6c0-4.1,0-7.7,0-11.8c1.2-2.4,3.9-2.1,4.8,0v10.3"/>
	<path class="st0" d="M47.1,17.6c0-4.1,0-7.7,0-11.8c-1.2-2.4-3.9-2.1-4.8,0v10.3"/>
	<line class="st0" x1="4.5" y1="24.2" x2="55.8" y2="59.9"/>
	<polyline class="st0" points="59.5,24.2 4.5,54.5 55.8,59.9 	"/>
	<line class="st0" x1="9.9" y1="9.5" x2="4.5" y2="22.8"/>
	<line class="st0" x1="50" y1="9.5" x2="59.5" y2="14.5"/>
	<polyline class="st0" points="4.5,24.2 32.9,18.8 59.5,24.2 	"/>
	<polyline class="st0" points="43.9,16.1 32.9,18.8 20.1,16.1 	"/>
</g>
<circle class="st1" cx="55.1" cy="59.5" r="1.9"/>
<circle class="st1" cx="59.1" cy="24" r="1.4"/>
<circle class="st1" cx="43.9" cy="16.3" r="1.4"/>
<circle class="st1" cx="20.1" cy="16.1" r="1.1"/>
<circle class="st1" cx="5" cy="54.6" r="1.6"/>
<circle class="st1" cx="4.5" cy="24.1" r="1.8"/>
</svg>
