<?xml version="1.0" encoding="utf-8"?>
<!-- Generator: Adobe Illustrator 27.0.0, SVG Export Plug-In . SVG Version: 6.00 Build 0)  -->
<svg version="1.1" id="Layer_1" xmlns="http://www.w3.org/2000/svg" xmlns:xlink="http://www.w3.org/1999/xlink" x="0px" y="0px"
	 viewBox="0 0 160 160" style="enable-background:new 0 0 160 160;" xml:space="preserve">
<style type="text/css">
	.st0{fill:none;stroke:#1C75BC;stroke-width:0.9586;stroke-miterlimit:10;}
	.st1{fill:#1C75BC;}
</style>
<g>
	<g>
		<path class="st0" d="M138,139.4c-0.3,0-0.5,0-0.6,0c-11.1,0-22.1,0-33.2,0c-0.4,0-0.6-0.1-0.8-0.4c-10.3-15.1-20.7-30.1-31-45.1
			c-0.1-0.1-0.2-0.2-0.3-0.4c-0.1,0.1-0.2,0.3-0.4,0.4c-7.4,8.6-14.8,17.3-22.2,25.9c-5.6,6.5-11.1,12.9-16.7,19.4
			c-0.1,0.1-0.3,0.3-0.5,0.3c-3.2,0-6.3,0-9.5,0c0,0-0.1,0-0.2,0c15.1-17.5,30.1-35,45.1-52.4C52.6,65,37.6,43.2,22.5,21.2
			c0.3,0,0.5,0,0.7,0c11,0,22,0,33.1,0c0.4,0,0.7,0.1,0.9,0.5C66.9,35.8,76.6,50,86.3,64.1c0.1,0.2,0.3,0.4,0.4,0.6
			c0.1-0.2,0.2-0.3,0.4-0.4c10.7-12.4,21.4-24.9,32.1-37.3c1.6-1.8,3.2-3.7,4.8-5.5c0.1-0.1,0.4-0.3,0.6-0.3c3.1,0,6.2,0,9.4,0
			c0.1,0,0.2,0,0.3,0c-14.4,16.7-28.7,33.4-43,50C106.8,93.9,122.4,116.6,138,139.4z M36.2,28.8c0.6,0.8,1,1.5,1.5,2.2
			c13,18.6,26,37.2,39,55.9c10.5,15,20.9,30,31.4,45c0.2,0.3,0.4,0.4,0.7,0.4c5,0,9.9,0,14.9,0c0.1,0,0.3,0,0.4,0
			c-0.1-0.2-0.2-0.3-0.3-0.4c-1.7-2.5-3.4-4.9-5.2-7.4C108.1,109,97.4,93.7,86.7,78.4C75.2,62,63.8,45.6,52.3,29.2
			c-0.2-0.3-0.4-0.4-0.8-0.4c-4.9,0-9.8,0-14.7,0C36.6,28.8,36.5,28.8,36.2,28.8z"/>
	</g>
	<polyline class="st0" points="32.8,139.1 67.7,86.9 108.2,131.8 103.4,139 36.2,28.8 57.2,21.6 23.2,21.2 52.4,28.7 62.9,30 
		123.9,131.7 138,139.4 52.4,28.7 	"/>
	<line class="st0" x1="72.1" y1="93.5" x2="22.8" y2="139.4"/>
	<polyline class="st0" points="123.9,21.5 91.2,71.2 86.3,64.1 134.2,21.2 	"/>
	<circle class="st1" cx="56.8" cy="21.2" r="1.8"/>
	<circle class="st1" cx="22.5" cy="21.2" r="1.8"/>
	<circle class="st1" cx="36" cy="28.8" r="1.8"/>
	<circle class="st1" cx="124.2" cy="21.2" r="1.8"/>
	<circle class="st1" cx="134.2" cy="21.2" r="1.8"/>
	<circle class="st1" cx="91.2" cy="71.2" r="1.8"/>
	<circle class="st1" cx="137.5" cy="138.8" r="1.8"/>
	<circle class="st1" cx="124.2" cy="132.2" r="1.8"/>
	<circle class="st1" cx="103.1" cy="138.8" r="1.8"/>
	<circle class="st1" cx="108.4" cy="132.2" r="1.8"/>
	<circle class="st1" cx="72.7" cy="93.5" r="1.8"/>
	<circle class="st1" cx="67.3" cy="87.8" r="1.8"/>
	<circle class="st1" cx="23.2" cy="138.8" r="1.8"/>
	<circle class="st1" cx="33.6" cy="138.8" r="1.8"/>
</g>
</svg>
